<?xml version="1.0" encoding="UTF-8" standalone="no"?>
<svg
   viewBox="0 0 32 32"
   version="1.1"
   id="svg11"
   sodipodi:docname="pgspec-out-dark.svg"
   inkscape:version="1.1.2 (b8e25be8, 2022-02-05)"
   xmlns:inkscape="http://www.inkscape.org/namespaces/inkscape"
   xmlns:sodipodi="http://sodipodi.sourceforge.net/DTD/sodipodi-0.dtd"
   xmlns="http://www.w3.org/2000/svg"
   xmlns:svg="http://www.w3.org/2000/svg">
  <defs
     id="defs15">
    <inkscape:path-effect
       effect="powerstroke"
       id="path-effect2850"
       is_visible="true"
       lpeversion="1"
       offset_points="0,18.8679"
       not_jump="false"
       sort_points="true"
       interpolator_type="CubicBezierJohan"
       interpolator_beta="0.2"
       start_linecap_type="zerowidth"
       linejoin_type="extrp_arc"
       miter_limit="4"
       scale_width="1"
       end_linecap_type="zerowidth" />
  </defs>
  <sodipodi:namedview
     id="namedview13"
     pagecolor="#1e1e1e"
     bordercolor="#eeeeee"
     borderopacity="1"
     inkscape:pageshadow="0"
     inkscape:pageopacity="0"
     inkscape:pagecheckerboard="0"
     showgrid="false"
     inkscape:zoom="16.78125"
     inkscape:cx="13.705773"
     inkscape:cy="16.05959"
     inkscape:window-width="1296"
     inkscape:window-height="763"
     inkscape:window-x="0"
     inkscape:window-y="25"
     inkscape:window-maximized="0"
     inkscape:current-layer="svg11"
     showborder="true" />
  <path
     d="m 17.35937,11.980173 c -3.782881,0 -7.4081394,-0.157618 -11.0333977,-0.945718 C 5.3802517,10.876834 4.5921517,10.403974 3.6464318,10.088736 3.1735718,9.9311161 3.0159519,9.6158761 3.0159519,9.1430177 V 3.6263048 c 0,-0.31524 0.1576199,-0.63048 0.4728599,-0.63048 C 4.5921517,2.5229649 5.5378713,2.050105 6.641213,1.8924849 10.58171,0.94676512 14.364589,0.94676512 18.305088,0.94676512 c 3.152402,0 6.462421,0.31523978 9.457201,1.10333988 0.63048,0.1576199 1.418579,0.4728599 2.049059,0.7880999 0.472861,0.1576199 0.630482,0.4728599 0.630482,0.9457198 v 5.5167124 c 0,0.315239 -0.315241,0.630479 -0.47286,0.7880989 -0.630481,0.315238 -1.26096,0.630478 -1.89144,0.788098 -2.206679,0.31524 -4.413359,0.788102 -6.62004,0.945721 -1.418581,0.157618 -2.837161,0 -4.09812,0.157618 z m 13.08246,0.31524 v 5.674321 c 0,0.315241 -0.472861,0.7881 -0.788101,0.7881 -0.945719,0.315241 -2.04906,0.788099 -2.994781,0.94572 -4.413359,0.7881 -8.984339,0.945719 -13.555318,0.7881 C 10.58171,20.334032 7.9021718,20.176414 5.3802517,19.388314 4.7497714,19.230693 4.1192913,18.915453 3.4888118,18.600215 3.1735718,18.442594 3.0159519,18.127353 3.0159519,17.812112 v -5.516699 c 4.5709792,1.576202 9.1419581,1.733821 13.7129371,1.733821 4.570981,0.157619 9.14196,-0.157619 13.712941,-1.733821 z m 0,8.82672 v 5.516701 c 0,0.315238 -0.472861,0.7881 -0.788101,0.945719 -1.26096,0.472861 -2.52192,0.94572 -3.78288,1.103339 -6.3048,0.945721 -12.609599,0.945721 -19.0720176,-0.157619 -1.103339,-0.15762 -2.2066797,-0.63048 -3.1523996,-0.94572 -0.47286,-0.157619 -0.6304799,-0.47286 -0.6304799,-1.103341 v -5.359079 c 4.413361,1.576201 8.9843371,1.73382 13.7129371,1.73382 4.570981,0 9.14196,-0.157619 13.712941,-1.73382 z"
     fill="#f55385"
     id="path9"
     style="display:inline;fill:#336791;fill-opacity:1;stroke-width:1.57619" />
  <path
     style="fill:#3d9e32;fill-opacity:1;stroke-width:0.0472977"
     d="m 16.233405,30.810306 c -0.294138,-0.139461 -0.55328,-0.405817 -0.6953,-0.71465 l -0.108781,-0.23649 -0.0128,-8.596356 -0.0128,-8.596357 h 8.042585 8.042587 l -0.0128,8.596357 -0.0128,8.596356 -0.108782,0.23649 c -0.14203,0.308833 -0.401173,0.575189 -0.695311,0.71465 l -0.236491,0.112154 h -6.976407 -6.976407 z m 12.670435,-2.53358 c 0.279735,-0.106338 0.335393,-0.565137 0.0918,-0.756754 -0.120706,-0.09494 -0.173945,-0.09668 -3.028933,-0.09668 h -2.906064 l -0.138262,0.13825 c -0.22275,0.222762 -0.161601,0.601831 0.115179,0.713497 0.141473,0.05713 5.716389,0.05864 5.866332,0.0012 z m -10.542695,-0.04933 c 0.03444,0 0.260412,-0.218167 0.502231,-0.484801 0.241818,-0.266647 0.462021,-0.488851 0.489327,-0.493783 0.02734,-0.0047 0.23057,0.193967 0.451678,0.442034 0.221122,0.248066 0.455018,0.471689 0.519786,0.496924 0.292078,0.1139 0.615363,-0.10529 0.615363,-0.417043 0,-0.135448 -0.06585,-0.232593 -0.427167,-0.630266 -0.234942,-0.258584 -0.447781,-0.482893 -0.47298,-0.49846 -0.09784,-0.06049 -0.03107,-0.172014 0.371984,-0.621284 0.229789,-0.256106 0.442628,-0.512131 0.472981,-0.568952 0.151257,-0.283179 -0.06736,-0.6298 -0.397265,-0.6298 -0.189488,0 -0.295651,0.09005 -0.878157,0.744944 l -0.262959,0.295628 -0.457171,-0.493004 c -0.499321,-0.538458 -0.627123,-0.608288 -0.876877,-0.479135 -0.175864,0.09098 -0.241342,0.2051 -0.241342,0.420801 0,0.142381 0.06317,0.233035 0.471619,0.677104 0.259387,0.282005 0.472226,0.526162 0.47297,0.54259 7.57e-4,0.0164 -0.211465,0.266938 -0.471608,0.556701 -0.411099,0.457928 -0.472981,0.548791 -0.472981,0.694546 0,0.09226 0.02291,0.21058 0.05107,0.263016 0.05793,0.108316 0.319234,0.237142 0.413995,0.204159 0.03466,-0.0121 0.0911,-0.02188 0.125546,-0.02188 z M 28.928528,25.6519 c 0.268985,-0.1391 0.305121,-0.546079 0.06526,-0.734764 -0.118247,-0.09296 -0.186738,-0.09517 -3.027056,-0.09517 h -2.90606 l -0.138263,0.138251 c -0.21221,0.212209 -0.162322,0.547091 0.103428,0.694392 0.175434,0.09726 5.714341,0.0947 5.902701,-0.0022 z m -9.71098,-2.736472 c 0.0804,-0.08295 0.601411,-0.725376 1.157716,-1.427495 0.905173,-1.142454 1.011441,-1.294991 1.011441,-1.45174 0,-0.310474 -0.31373,-0.531024 -0.591628,-0.415926 -0.08074,0.0335 -0.456309,0.46394 -0.992685,1.137869 -0.474527,0.596236 -0.875725,1.083469 -0.891548,1.082747 -0.01582,-7.33e-4 -0.1139,-0.13376 -0.217957,-0.295616 -0.226799,-0.352787 -0.379163,-0.443021 -0.616072,-0.36484 -0.202971,0.06701 -0.306238,0.207848 -0.306238,0.417729 0,0.227579 0.720978,1.365693 0.92231,1.45593 0.189976,0.08516 0.348272,0.04328 0.524661,-0.138658 z m 9.81378,0.02571 c 0.180879,-0.202462 0.180867,-0.387284 -2.2e-5,-0.589731 L 28.8933,22.196947 h -2.91657 -2.916569 l -0.138006,0.154457 c -0.215583,0.241284 -0.162927,0.554549 0.116587,0.693545 0.129047,0.06422 0.503103,0.0719 3.001011,0.06201 l 2.853583,-0.01163 z m -0.174107,-2.489202 c 0.328589,-0.137297 0.40463,-0.44386 0.174107,-0.701898 l -0.137992,-0.154457 -2.806289,-0.01431 c -1.926909,-0.0093 -2.861772,0.0022 -2.983375,0.03735 -0.190697,0.05549 -0.319536,0.234572 -0.319536,0.444 0,0.145103 0.20388,0.394915 0.344527,0.422139 0.0576,0.01164 1.334629,0.02316 2.837759,0.02676 2.241279,0.0058 2.761356,-0.0058 2.890799,-0.05957 z m -9.698764,-2.689144 c 0.165998,-0.152142 2.116175,-2.630377 2.196311,-2.791012 0.195051,-0.390983 -0.314823,-0.783163 -0.66255,-0.509642 -0.08959,0.0705 -1.348008,1.623197 -1.72254,2.125402 -0.0455,0.06109 -0.08574,0.02269 -0.249044,-0.237805 -0.279828,-0.446304 -0.552443,-0.54082 -0.811795,-0.281469 -0.224496,0.224497 -0.193758,0.370192 0.215933,1.02339 0.408748,0.651718 0.531315,0.777555 0.757299,0.777555 0.100289,0 0.203742,-0.03978 0.276386,-0.106454 z m 9.835316,0.01163 c 0.239876,-0.188684 0.20374,-0.595676 -0.06526,-0.734764 -0.205694,-0.106338 -5.705987,-0.102149 -5.912287,0.0047 -0.262155,0.135577 -0.308216,0.472819 -0.09389,0.687193 l 0.138263,0.138251 h 2.906063 c 2.840318,0 2.908809,-0.0022 3.02706,-0.09517 z m -0.08993,-2.55147 c 0.279736,-0.106338 0.335394,-0.565137 0.09179,-0.756743 -0.120705,-0.09494 -0.173944,-0.09668 -3.028932,-0.09668 h -2.906064 l -0.138262,0.138262 c -0.22275,0.222751 -0.161601,0.601832 0.115179,0.713498 0.141473,0.05713 5.716389,0.05863 5.866332,0.0012 z M 15.41399,10.242834 C 15.43051,8.7745164 15.43516,8.7086424 15.538989,8.4809944 15.67959,8.1727549 15.93872,7.9060617 16.233405,7.7663454 l 0.236491,-0.1121547 h 6.976407 6.976407 l 0.236491,0.1121547 c 0.294685,0.1397163 0.553828,0.4064095 0.694416,0.714649 0.103778,0.227648 0.108549,0.293522 0.124999,1.7618396 l 0.0171,1.525358 H 23.44628 15.396841 Z M 27.987824,10.041329 C 28.257194,9.9020434 28.31234,9.5524794 28.098699,9.3388034 L 27.974003,9.2141184 H 23.446326 18.91865 l -0.124697,0.124685 c -0.209812,0.209813 -0.159389,0.558842 0.101219,0.7002336 0.196655,0.106687 8.886563,0.108897 9.092735,0.0023 z"
     id="path989" />
</svg>
