<?xml version="1.0" encoding="UTF-8" standalone="no"?>
<svg
   viewBox="0 0 32 32"
   version="1.1"
   id="svg11"
   sodipodi:docname="pgspec-dark.svg"
   inkscape:version="1.1.2 (b8e25be8, 2022-02-05)"
   xmlns:inkscape="http://www.inkscape.org/namespaces/inkscape"
   xmlns:sodipodi="http://sodipodi.sourceforge.net/DTD/sodipodi-0.dtd"
   xmlns="http://www.w3.org/2000/svg"
   xmlns:svg="http://www.w3.org/2000/svg">
  <defs
     id="defs15">
    <inkscape:path-effect
       effect="powerstroke"
       id="path-effect2850"
       is_visible="true"
       lpeversion="1"
       offset_points="0,18.8679"
       not_jump="false"
       sort_points="true"
       interpolator_type="CubicBezierJohan"
       interpolator_beta="0.2"
       start_linecap_type="zerowidth"
       linejoin_type="extrp_arc"
       miter_limit="4"
       scale_width="1"
       end_linecap_type="zerowidth" />
  </defs>
  <sodipodi:namedview
     id="namedview13"
     pagecolor="#1e1e1e"
     bordercolor="#eeeeee"
     borderopacity="1"
     inkscape:pageshadow="0"
     inkscape:pageopacity="0"
     inkscape:pagecheckerboard="0"
     showgrid="false"
     inkscape:zoom="16.78125"
     inkscape:cx="16.208566"
     inkscape:cy="13.556797"
     inkscape:window-width="1296"
     inkscape:window-height="763"
     inkscape:window-x="26"
     inkscape:window-y="25"
     inkscape:window-maximized="0"
     inkscape:current-layer="svg11"
     showborder="true" />
  <path
     d="m 17.35937,11.980173 c -3.782881,0 -7.4081394,-0.157618 -11.0333977,-0.945718 C 5.3802517,10.876834 4.5921517,10.403974 3.6464318,10.088736 3.1735718,9.9311161 3.0159519,9.6158761 3.0159519,9.1430177 V 3.6263048 c 0,-0.31524 0.1576199,-0.63048 0.4728599,-0.63048 C 4.5921517,2.5229649 5.5378713,2.050105 6.641213,1.8924849 10.58171,0.94676512 14.364589,0.94676512 18.305088,0.94676512 c 3.152402,0 6.462421,0.31523978 9.457201,1.10333988 0.63048,0.1576199 1.418579,0.4728599 2.049059,0.7880999 0.472861,0.1576199 0.630482,0.4728599 0.630482,0.9457198 v 5.5167124 c 0,0.315239 -0.315241,0.630479 -0.47286,0.7880989 -0.630481,0.315238 -1.26096,0.630478 -1.89144,0.788098 -2.206679,0.31524 -4.413359,0.788102 -6.62004,0.945721 -1.418581,0.157618 -2.837161,0 -4.09812,0.157618 z m 13.08246,0.31524 v 5.674321 c 0,0.315241 -0.472861,0.7881 -0.788101,0.7881 -0.945719,0.315241 -2.04906,0.788099 -2.994781,0.94572 -4.413359,0.7881 -8.984339,0.945719 -13.555318,0.7881 C 10.58171,20.334032 7.9021718,20.176414 5.3802517,19.388314 4.7497714,19.230693 4.1192913,18.915453 3.4888118,18.600215 3.1735718,18.442594 3.0159519,18.127353 3.0159519,17.812112 v -5.516699 c 4.5709792,1.576202 9.1419581,1.733821 13.7129371,1.733821 4.570981,0.157619 9.14196,-0.157619 13.712941,-1.733821 z m 0,8.82672 v 5.516701 c 0,0.315238 -0.472861,0.7881 -0.788101,0.945719 -1.26096,0.472861 -2.52192,0.94572 -3.78288,1.103339 -6.3048,0.945721 -12.609599,0.945721 -19.0720176,-0.157619 -1.103339,-0.15762 -2.2066797,-0.63048 -3.1523996,-0.94572 -0.47286,-0.157619 -0.6304799,-0.47286 -0.6304799,-1.103341 v -5.359079 c 4.413361,1.576201 8.9843371,1.73382 13.7129371,1.73382 4.570981,0 9.14196,-0.157619 13.712941,-1.73382 z"
     fill="#f55385"
     id="path9"
     style="display:inline;fill:#336791;fill-opacity:1;stroke-width:1.57619" />
  <path
     id="path4104"
     style="display:inline;fill:#3d9e32;fill-opacity:1;stroke-width:0.0580805"
     d="m 22.030647,5.4345256 c -3.863609,0 -3.922596,0.00196 -4.183075,0.1223568 -1.53705,0.7111967 -1.291313,2.9468512 0.361972,3.2883416 l 0.336481,0.06883 v 3.795611 3.795611 l -1.238861,2.15909 c -0.682001,1.188119 -1.272391,2.219726 -1.31024,2.291639 l -0.06883,0.130005 h 6.102549 6.102546 l -0.06883,-0.130005 c -0.03788,-0.07187 -0.625689,-1.10352 -1.30769,-2.291639 L 25.51526,16.505273 V 12.709662 8.9140513 l 0.339031,-0.06883 C 26.989134,8.6108148 27.570515,7.4084456 27.057477,6.3598443 26.884429,6.0061429 26.596893,5.7329979 26.216274,5.5568824 25.955795,5.435896 25.894255,5.4345256 22.030652,5.4345256 Z m -7.114542,17.3950654 -0.502172,0.856498 c -0.276259,0.471182 -0.779654,1.327419 -1.119055,1.901628 -0.358183,0.605977 -0.668431,1.202443 -0.73669,1.422399 -0.167319,0.538683 -0.199436,1.20994 -0.08667,1.743584 0.278608,1.318426 1.359219,2.419045 2.648515,2.696949 0.310401,0.06696 1.527404,0.08406 6.851983,0.08667 7.231464,0.0041 6.911468,0.01897 7.772207,-0.405307 1.232091,-0.607307 2.023215,-1.991151 1.909277,-3.339322 -0.06001,-0.709995 -0.214996,-1.056223 -1.353573,-3.051273 l -1.091019,-1.911823 h -7.14513 z" />
</svg>
